<svg xmlns="http://www.w3.org/2000/svg" width="760" height="358" viewBox="0 0 760 358" role="img" aria-label="Cost per task with and without modelharness, per model">
<style>
  .t { font-family: -apple-system, 'Segoe UI', Helvetica, Arial, sans-serif; fill: #1f2328; }
  .dim { fill: #8b949e; }
  @media (prefers-color-scheme: dark) { .t { fill: #e6edf3; } }
</style>
<text x="10" y="20" class="t" font-size="15" font-weight="bold">Cost per task, $ — same 17-task benchmark</text>
<rect x="10" y="32" width="10" height="10" rx="2" fill="#d0d7de"/><text x="26" y="41" class="t" font-size="11">without modelharness</text>
<rect x="170" y="32" width="10" height="10" rx="2" fill="#2da44e"/><text x="186" y="41" class="t" font-size="11">with modelharness</text>
  <text x="10" y="64" class="t" font-size="13" font-weight="bold">Fable 5 <tspan class="dim" font-weight="normal">(Jun 2026)</tspan></text>
  <rect x="10" y="70" width="520" height="16" rx="3" fill="#d0d7de"/>
  <text x="538" y="82" class="t" font-size="12" fill="currentColor">$1.80</text>
  <rect x="10" y="90" width="502" height="16" rx="3" fill="#2da44e"/>
  <text x="520" y="102" class="t" font-size="12" fill="#2da44e">$1.73 (−4%)</text>
  <text x="10" y="136" class="t" font-size="13" font-weight="bold">Opus 4.8 <tspan class="dim" font-weight="normal">(2026)</tspan></text>  <g transform="translate(134,124)"><rect width="92" height="14" rx="7" fill="#bf8700"/><text x="46" y="10.5" font-size="9" font-weight="bold" fill="#fff" text-anchor="middle">★ BIGGEST GAIN</text></g>
  <rect x="10" y="142" width="258" height="16" rx="3" fill="#d0d7de"/>
  <text x="276" y="154" class="t" font-size="12" fill="currentColor">$0.89</text>
  <rect x="10" y="162" width="222" height="16" rx="3" fill="#2da44e"/>
  <text x="240" y="174" class="t" font-size="12" fill="#2da44e">$0.77 (−14%)</text>
  <text x="10" y="208" class="t" font-size="13" font-weight="bold">Sonnet 4.6 <tspan class="dim" font-weight="normal">(Nov 2025)</tspan></text>
  <rect x="10" y="214" width="120" height="16" rx="3" fill="#d0d7de"/>
  <text x="138" y="226" class="t" font-size="12" fill="currentColor">$0.41</text>
  <rect x="10" y="234" width="115" height="16" rx="3" fill="#2da44e"/>
  <text x="133" y="246" class="t" font-size="12" fill="#2da44e">$0.40 (−4%)</text>
  <text x="10" y="280" class="t" font-size="13" font-weight="bold">Haiku 4.5 <tspan class="dim" font-weight="normal">(Oct 2025)</tspan></text>
  <rect x="10" y="286" width="69" height="16" rx="3" fill="#d0d7de"/>
  <text x="87" y="298" class="t" font-size="12" fill="#d1737a">$0.24 · only 98% tests passed</text>
  <rect x="10" y="306" width="70" height="16" rx="3" fill="#2da44e"/>
  <text x="88" y="318" class="t" font-size="12" fill="#2da44e">$0.24 · 100% tests passed</text>
</svg>
